<?xml version="1.0" encoding="UTF-8" standalone="no"?>
<svg
   xmlns:dc="http://purl.org/dc/elements/1.1/"
   xmlns:cc="http://creativecommons.org/ns#"
   xmlns:rdf="http://www.w3.org/1999/02/22-rdf-syntax-ns#"
   xmlns:svg="http://www.w3.org/2000/svg"
   xmlns="http://www.w3.org/2000/svg"
   xmlns:sodipodi="http://sodipodi.sourceforge.net/DTD/sodipodi-0.dtd"
   xmlns:inkscape="http://www.inkscape.org/namespaces/inkscape"
   width="18in"
   height="12in"
   id="svg5423"
   version="1.1"
   inkscape:version="0.91 r13725"
   sodipodi:docname="BOTTOM.svg">
  <metadata
     id="metadata5735">
    <rdf:RDF>
      <cc:Work
         rdf:about="">
        <dc:format>image/svg+xml</dc:format>
        <dc:type
           rdf:resource="http://purl.org/dc/dcmitype/StillImage" />
        <dc:title />
      </cc:Work>
    </rdf:RDF>
  </metadata>
  <sodipodi:namedview
     pagecolor="#ffffff"
     bordercolor="#666666"
     borderopacity="1"
     objecttolerance="10"
     gridtolerance="10"
     guidetolerance="10"
     inkscape:pageopacity="0"
     inkscape:pageshadow="2"
     inkscape:window-width="1366"
     inkscape:window-height="706"
     id="namedview5733"
     showgrid="false"
     inkscape:zoom="0.51028059"
     inkscape:cx="766.98112"
     inkscape:cy="-61.483073"
     inkscape:window-x="-8"
     inkscape:window-y="-8"
     inkscape:window-maximized="1"
     inkscape:current-layer="g5441"
     units="in" />
  <desc
     id="desc5425">H:\Makerspace\Jenna\Clock\clock_final1.dxf - scale = 1.000000, origin = (0.000000, 0.000000), auto = False</desc>
  <defs
     id="defs5427">
    <marker
       refY="0"
       refX="0"
       style="overflow:visible"
       id="DistanceX"
       orient="auto">
      <path
         style="stroke:#000000;stroke-width:0.5"
         d="M 3,-3 -3,3 M 0,-5 0,5"
         id="path5430"
         inkscape:connector-curvature="0" />
    </marker>
    <pattern
       height="8"
       width="8"
       patternUnits="userSpaceOnUse"
       y="0"
       x="0"
       id="Hatch">
      <path
         linecap="square"
         stroke="#000000"
         stroke-width="0.25"
         d="M8 4 l-4,4"
         id="path5433" />
      <path
         linecap="square"
         stroke="#000000"
         stroke-width="0.25"
         d="M6 2 l-4,4"
         id="path5435" />
      <path
         linecap="square"
         stroke="#000000"
         stroke-width="0.25"
         d="M4 0 l-4,4"
         id="path5437" />
    </pattern>
    <symbol
       id="*MODEL_SPACE" />
    <symbol
       id="*PAPER_SPACE" />
  </defs>
  <g
     inkscape:label="0"
     inkscape:groupmode="layer"
     id="g5441"
     transform="translate(0,27.637833)">
    <path
       style="fill:none;stroke:#000000"
       d="M 96.047894,690.17355 1440.5598,688.89138"
       id="path5443-1-9"
       inkscape:connector-curvature="0" />
    <path
       style="fill:none;stroke:#000000"
       d="m 96.047894,690.17355 a 65.508661,65.508661 0 0 1 -65.5712,-65.49149"
       id="path5445-7-5"
       inkscape:connector-curvature="0" />
    <path
       style="fill:none;stroke:#000000"
       d="m 30.357994,171.12725 0.1187,453.55481"
       id="path5447-0-9"
       inkscape:connector-curvature="0" />
    <path
       style="fill:none;stroke:#000000"
       d="m 95.863494,105.60145 1344.199306,-0.065"
       id="path5449-5-8"
       inkscape:connector-curvature="0" />
    <path
       style="fill:none;stroke:#000000"
       d="m 30.357994,171.12725 a 65.508661,65.508661 0 0 1 65.5055,-65.5258"
       id="path5451-1-9"
       inkscape:connector-curvature="0" />
    <path
       style="fill:none;stroke:#000000"
       d="m 1440.0628,105.53615 a 65.508661,65.508661 0 0 1 65.5118,65.4462"
       id="path5453-2-0"
       inkscape:connector-curvature="0" />
    <path
       style="fill:none;stroke:#000000"
       d="m 1505.5746,170.98235 0.4314,452.33793"
       id="path5455-7-3"
       inkscape:connector-curvature="0" />
    <path
       style="fill:none;stroke:#000000"
       d="m 1506.006,623.32028 a 65.508661,65.508661 0 0 1 -65.4462,65.5711"
       id="path5457-7-3"
       inkscape:connector-curvature="0" />
    <path
       style="fill:none;stroke:#000000"
       d="m 105.55349,690.16448 -9.505596,0.009"
       id="path5661-1-9"
       inkscape:connector-curvature="0" />
    <path
       style="fill:none;stroke:#000000"
       d="m 125.09889,171.11015 a 29.232285,29.232285 0 1 1 -58.464496,0 29.232285,29.232285 0 0 1 58.464496,0 z"
       id="path5679-7-8"
       inkscape:connector-curvature="0" />
    <path
       style="fill:none;stroke:#000000"
       d="m 125.21769,624.66491 a 29.2323,29.2323 0 1 1 -58.464596,0 29.2323,29.2323 0 0 1 58.464596,0 z"
       id="path5681-6-3"
       inkscape:connector-curvature="0" />
    <path
       style="fill:none;stroke:#000000"
       d="m 1462.6479,651.7292 a 29.232284,29.232284 0 1 1 -58.4645,0 29.232284,29.232284 0 0 1 58.4645,0 z"
       id="path5717-2-5"
       inkscape:connector-curvature="0" />
    <path
       style="fill:none;stroke:#000000"
       d="m 1487.0148,171.04485 a 29.2323,29.2323 0 0 1 -58.4646,0 29.2323,29.2323 0 1 1 58.4646,0 z"
       id="path5723-1-1"
       inkscape:connector-curvature="0" />
  </g>
</svg>
