<?xml version="1.0" encoding="UTF-8" standalone="no"?>
<svg
   xmlns:dc="http://purl.org/dc/elements/1.1/"
   xmlns:cc="http://creativecommons.org/ns#"
   xmlns:rdf="http://www.w3.org/1999/02/22-rdf-syntax-ns#"
   xmlns:svg="http://www.w3.org/2000/svg"
   xmlns="http://www.w3.org/2000/svg"
   xmlns:sodipodi="http://sodipodi.sourceforge.net/DTD/sodipodi-0.dtd"
   xmlns:inkscape="http://www.inkscape.org/namespaces/inkscape"
   width="18in"
   height="12in"
   id="svg5423"
   version="1.1"
   inkscape:version="0.91 r13725"
   sodipodi:docname="BUMPER.svg">
  <metadata
     id="metadata5735">
    <rdf:RDF>
      <cc:Work
         rdf:about="">
        <dc:format>image/svg+xml</dc:format>
        <dc:type
           rdf:resource="http://purl.org/dc/dcmitype/StillImage" />
        <dc:title />
      </cc:Work>
    </rdf:RDF>
  </metadata>
  <sodipodi:namedview
     pagecolor="#ffffff"
     bordercolor="#666666"
     borderopacity="1"
     objecttolerance="10"
     gridtolerance="10"
     guidetolerance="10"
     inkscape:pageopacity="0"
     inkscape:pageshadow="2"
     inkscape:window-width="1366"
     inkscape:window-height="706"
     id="namedview5733"
     showgrid="false"
     inkscape:zoom="0.36082287"
     inkscape:cx="1216.0702"
     inkscape:cy="831.71796"
     inkscape:window-x="-8"
     inkscape:window-y="-8"
     inkscape:window-maximized="1"
     inkscape:current-layer="g5441"
     units="in" />
  <desc
     id="desc5425">H:\Makerspace\Jenna\Clock\clock_final1.dxf - scale = 1.000000, origin = (0.000000, 0.000000), auto = False</desc>
  <defs
     id="defs5427">
    <marker
       refY="0"
       refX="0"
       style="overflow:visible"
       id="DistanceX"
       orient="auto">
      <path
         style="stroke:#000000;stroke-width:0.5"
         d="M 3,-3 -3,3 M 0,-5 0,5"
         id="path5430"
         inkscape:connector-curvature="0" />
    </marker>
    <pattern
       height="8"
       width="8"
       patternUnits="userSpaceOnUse"
       y="0"
       x="0"
       id="Hatch">
      <path
         linecap="square"
         stroke="#000000"
         stroke-width="0.25"
         d="M8 4 l-4,4"
         id="path5433" />
      <path
         linecap="square"
         stroke="#000000"
         stroke-width="0.25"
         d="M6 2 l-4,4"
         id="path5435" />
      <path
         linecap="square"
         stroke="#000000"
         stroke-width="0.25"
         d="M4 0 l-4,4"
         id="path5437" />
    </pattern>
    <symbol
       id="*MODEL_SPACE" />
    <symbol
       id="*PAPER_SPACE" />
  </defs>
  <g
     inkscape:label="0"
     inkscape:groupmode="layer"
     id="g5441"
     transform="translate(0,27.637833)">
    <path
       style="fill:none;stroke:#000000"
       d="M 128.56792,690.43408 1473.0799,689.15191"
       id="path5443"
       inkscape:connector-curvature="0" />
    <path
       style="fill:none;stroke:#000000"
       d="M 128.56792,690.43408 A 65.508661,65.508661 0 0 1 62.996788,624.94259"
       id="path5445"
       inkscape:connector-curvature="0" />
    <path
       style="fill:none;stroke:#000000"
       d="m 62.878048,171.38778 0.11874,453.55481"
       id="path5447"
       inkscape:connector-curvature="0" />
    <path
       style="fill:none;stroke:#000000"
       d="m 128.38352,105.86196 1344.19938,-0.0653"
       id="path5449"
       inkscape:connector-curvature="0" />
    <path
       style="fill:none;stroke:#000000"
       d="M 62.878048,171.38778 A 65.508661,65.508661 0 0 1 128.38352,105.86196"
       id="path5451"
       inkscape:connector-curvature="0" />
    <path
       style="fill:none;stroke:#000000"
       d="m 1472.5829,105.79669 a 65.508661,65.508661 0 0 1 65.5118,65.44619"
       id="path5453"
       inkscape:connector-curvature="0" />
    <path
       style="fill:none;stroke:#000000"
       d="m 1538.0947,171.24288 0.4314,452.33793"
       id="path5455"
       inkscape:connector-curvature="0" />
    <path
       style="fill:none;stroke:#000000"
       d="m 1538.5261,623.58081 a 65.508661,65.508661 0 0 1 -65.4462,65.5711"
       id="path5457"
       inkscape:connector-curvature="0" />
    <path
       style="fill:none;stroke:#000000"
       d="m 140.20545,624.92544 a 11.7,11.7 0 0 1 -23.4,0 11.7,11.7 0 1 1 23.4,0 z"
       id="path5649"
       inkscape:connector-curvature="0" />
    <path
       style="fill:none;stroke:#000000"
       d="m 140.08671,171.37063 a 11.7,11.7 0 0 1 -23.4,0 11.7,11.7 0 1 1 23.4,0 z"
       id="path5651"
       inkscape:connector-curvature="0" />
    <path
       style="fill:none;stroke:#000000"
       d="m 1538.5261,623.58081 -248.0315,0"
       id="path5653"
       inkscape:connector-curvature="0" />
    <path
       style="fill:none;stroke:#000000;stroke-width:0.54841429"
       d="m 1463.9286,410.98238 74.5975,0"
       id="path5657"
       inkscape:connector-curvature="0" />
    <path
       style="fill:none;stroke:#000000"
       d="m 138.07352,690.42501 -9.5056,0.009"
       id="path5661"
       inkscape:connector-curvature="0" />
    <path
       style="fill:none;stroke:#000000"
       d="m 1290.4946,623.58081 -74.7419,22.86205"
       id="path5683"
       inkscape:connector-curvature="0" />
    <path
       style="fill:none;stroke:#000000"
       d="M 204.9561,646.44286 158.89311,589.70762"
       id="path5685"
       inkscape:connector-curvature="0" />
    <path
       style="fill:none;stroke:#000000"
       d="m 158.89311,589.70762 0,-387.59548"
       id="path5687"
       inkscape:connector-curvature="0" />
    <path
       style="fill:none;stroke:#000000"
       d="m 158.89311,202.11214 46.063,-55.27559"
       id="path5689"
       inkscape:connector-curvature="0" />
    <path
       style="fill:none;stroke:#000000"
       d="m 1437.7253,146.62144 27.4247,58.22301"
       id="path5691"
       inkscape:connector-curvature="0" />
    <path
       style="fill:none;stroke:#000000"
       d="m 1465.15,204.84445 0,206.13793"
       id="path5693"
       inkscape:connector-curvature="0" />
    <path
       style="fill:none;stroke:#000000"
       d="m 549.88929,646.44286 34.20069,-85.03937"
       id="path5695"
       inkscape:connector-curvature="0" />
    <path
       style="fill:none;stroke:#000000"
       d="m 584.08998,561.40349 70.86614,0"
       id="path5697"
       inkscape:connector-curvature="0" />
    <path
       style="fill:none;stroke:#000000"
       d="m 654.95612,561.40349 30.31347,85.03937"
       id="path5699"
       inkscape:connector-curvature="0" />
    <path
       style="fill:none;stroke:#000000"
       d="m 1215.7527,646.44286 -530.48311,0"
       id="path5701"
       inkscape:connector-curvature="0" />
    <path
       style="fill:none;stroke:#000000"
       d="m 549.88929,646.44286 -344.93319,0"
       id="path5703"
       inkscape:connector-curvature="0" />
    <path
       style="fill:none;stroke:#000000"
       d="m 546.46466,148.84919 38.10832,75.23387"
       id="path5705"
       inkscape:connector-curvature="0" />
    <path
       style="fill:none;stroke:#000000"
       d="m 584.57298,224.08306 69.64405,0.41044"
       id="path5707"
       inkscape:connector-curvature="0" />
    <path
       style="fill:none;stroke:#000000"
       d="m 654.21703,224.4935 38.94346,-74.77977"
       id="path5709"
       inkscape:connector-curvature="0" />
    <path
       style="fill:none;stroke:#000000"
       d="m 204.95611,146.83655 341.50855,2.01264"
       id="path5711"
       inkscape:connector-curvature="0" />
    <path
       style="fill:none;stroke:#000000"
       d="m 1437.7253,146.62144 -744.56481,3.09229"
       id="path5713"
       inkscape:connector-curvature="0" />
    <path
       style="fill:none;stroke:#000000"
       d="m 1477.6357,651.98973 a 11.700015,11.700015 0 1 1 -23.4,0 11.700015,11.700015 0 0 1 23.4,0 z"
       id="path5715"
       inkscape:connector-curvature="0" />
    <path
       style="fill:none;stroke:#000000"
       d="m 1502.0026,171.30536 a 11.7,11.7 0 0 1 -23.4,0 11.7,11.7 0 1 1 23.4,0 z"
       id="path5721"
       inkscape:connector-curvature="0" />
  </g>
</svg>
