<?xml version="1.0" encoding="UTF-8" standalone="no"?>
<svg
   xmlns:dc="http://purl.org/dc/elements/1.1/"
   xmlns:cc="http://creativecommons.org/ns#"
   xmlns:rdf="http://www.w3.org/1999/02/22-rdf-syntax-ns#"
   xmlns:svg="http://www.w3.org/2000/svg"
   xmlns="http://www.w3.org/2000/svg"
   xmlns:sodipodi="http://sodipodi.sourceforge.net/DTD/sodipodi-0.dtd"
   xmlns:inkscape="http://www.inkscape.org/namespaces/inkscape"
   width="18in"
   height="12in"
   id="svg5423"
   version="1.1"
   inkscape:version="0.91 r13725"
   sodipodi:docname="TOP.svg">
  <metadata
     id="metadata5735">
    <rdf:RDF>
      <cc:Work
         rdf:about="">
        <dc:format>image/svg+xml</dc:format>
        <dc:type
           rdf:resource="http://purl.org/dc/dcmitype/StillImage" />
        <dc:title />
      </cc:Work>
    </rdf:RDF>
  </metadata>
  <sodipodi:namedview
     pagecolor="#ffffff"
     bordercolor="#666666"
     borderopacity="1"
     objecttolerance="10"
     gridtolerance="10"
     guidetolerance="10"
     inkscape:pageopacity="0"
     inkscape:pageshadow="2"
     inkscape:window-width="1366"
     inkscape:window-height="706"
     id="namedview5733"
     showgrid="false"
     inkscape:zoom="0.36082287"
     inkscape:cx="1133.7128"
     inkscape:cy="727.76282"
     inkscape:window-x="-8"
     inkscape:window-y="-8"
     inkscape:window-maximized="1"
     inkscape:current-layer="g5441"
     units="in" />
  <desc
     id="desc5425">H:\Makerspace\Jenna\Clock\clock_final1.dxf - scale = 1.000000, origin = (0.000000, 0.000000), auto = False</desc>
  <defs
     id="defs5427">
    <marker
       refY="0"
       refX="0"
       style="overflow:visible"
       id="DistanceX"
       orient="auto">
      <path
         style="stroke:#000000;stroke-width:0.5"
         d="M 3,-3 -3,3 M 0,-5 0,5"
         id="path5430"
         inkscape:connector-curvature="0" />
    </marker>
    <pattern
       height="8"
       width="8"
       patternUnits="userSpaceOnUse"
       y="0"
       x="0"
       id="Hatch">
      <path
         linecap="square"
         stroke="#000000"
         stroke-width="0.25"
         d="M8 4 l-4,4"
         id="path5433" />
      <path
         linecap="square"
         stroke="#000000"
         stroke-width="0.25"
         d="M6 2 l-4,4"
         id="path5435" />
      <path
         linecap="square"
         stroke="#000000"
         stroke-width="0.25"
         d="M4 0 l-4,4"
         id="path5437" />
    </pattern>
    <symbol
       id="*MODEL_SPACE" />
    <symbol
       id="*PAPER_SPACE" />
  </defs>
  <g
     inkscape:label="0"
     inkscape:groupmode="layer"
     id="g5441"
     transform="translate(0,27.637833)">
    <path
       style="fill:none;stroke:#000000"
       d="M 92.76136,729.45505 1437.2733,728.17288"
       id="path5443-1-5"
       inkscape:connector-curvature="0" />
    <path
       style="fill:none;stroke:#000000"
       d="M 92.76136,729.45505 A 65.508661,65.508661 0 0 1 27.19016,663.96356"
       id="path5445-7-0"
       inkscape:connector-curvature="0" />
    <path
       style="fill:none;stroke:#000000"
       d="m 27.07146,210.40875 0.1187,453.55481"
       id="path5447-0-4"
       inkscape:connector-curvature="0" />
    <path
       style="fill:none;stroke:#000000"
       d="m 92.57696,144.88295 1344.19934,-0.065"
       id="path5449-5-3"
       inkscape:connector-curvature="0" />
    <path
       style="fill:none;stroke:#000000"
       d="m 27.07146,210.40875 a 65.508661,65.508661 0 0 1 65.5055,-65.5258"
       id="path5451-1-6"
       inkscape:connector-curvature="0" />
    <path
       style="fill:none;stroke:#000000"
       d="m 1436.7763,144.81765 a 65.508661,65.508661 0 0 1 65.5118,65.4462"
       id="path5453-2-6"
       inkscape:connector-curvature="0" />
    <path
       style="fill:none;stroke:#000000"
       d="m 1502.2881,210.26385 0.4314,452.33793"
       id="path5455-7-4"
       inkscape:connector-curvature="0" />
    <path
       style="fill:none;stroke:#000000"
       d="m 1502.7195,662.60178 a 65.508661,65.508661 0 0 1 -65.4462,65.5711"
       id="path5457-7-4"
       inkscape:connector-curvature="0" />
    <path
       style="fill:none;stroke:#000000"
       d="m 231.98304,623.52721 0,-156.64936 0,-0.3025 0.25719,0 11.1384,-13.104 11.13617,-13.1014 10.57936,12.4463 1.11374,1.3103 10.58186,12.4488 -0.26203,0 0,157.21646 -0.225,0 -10.91379,12.83674 -11.13618,13.104 -10.57935,-12.44881 -1.11362,-1.31026 -10.3555,-12.18167 -0.22125,0 0,-0.2646 z"
       id="path5459-9-7"
       inkscape:connector-curvature="0" />
    <path
       style="fill:none;stroke:#000000"
       d="m 447.75749,458.22715 -0.26203,0.2216 0,-0.261 -156.42783,0 -0.52668,0 0,-0.4476 -12.57469,-10.6885 -13.104,-11.1362 12.4488,-10.5794 1.31026,-1.1137 11.91963,-10.1365 0,-0.4427 0.52668,0 156.68986,0 0,0.4821 12.84197,10.9161 13.10137,11.1361 -12.44631,10.5794 -1.31026,1.1136 -12.18677,10.3567 z"
       id="path5461-7-9"
       inkscape:connector-curvature="0" />
    <path
       style="fill:none;stroke:#000000"
       d="m 290.8056,196.94895 156.95189,0 0,0.2594 13.104,11.1362 13.10138,11.1361 -12.44507,10.5783 -1.31276,1.1159 -12.44755,10.5808 0,-0.262 -157.21654,0 0,-0.225 -12.83672,-10.9138 -13.10399,-11.1362 12.44754,-10.5783 1.31277,-1.1158 12.1804,-10.3582 0,-0.2174 0.26465,0 z"
       id="path5463-6-2"
       inkscape:connector-curvature="0" />
    <path
       style="fill:none;stroke:#000000"
       d="m 290.54095,673.57443 157.21654,0 0,0.26464 3.02615,-2.57231 9.42264,-8.00954 1.31028,-1.11375 12.44607,-10.57956 -13.10114,-11.13597 -13.104,-11.13883 0,-0.2594 -0.30518,0 -32.5714,0 -124.0811,0 -0.25886,0 0,0.2224 -12.18165,10.35686 -1.31027,1.11376 -12.44595,10.58178 13.10115,11.13375 12.83672,10.91121 0,0.22496 z"
       id="path5465-1-9"
       inkscape:connector-curvature="0" />
    <path
       style="fill:none;stroke:#000000"
       d="m 484.96803,432.77115 -10.57831,-12.4451 -1.11587,-1.3127 -10.35361,-12.1803 -0.22457,0 0,-0.2673 0,-156.3816 0,-0.5677 0.48253,0 10.91568,-12.8419 11.13618,-13.104 10.5783,12.4475 1.11586,1.3128 10.5808,12.445 -0.26465,0 0,156.9572 -0.22713,0 -10.90904,12.8367 -11.13617,13.1014 z"
       id="path5467-7-3"
       inkscape:connector-curvature="0" />
    <path
       style="fill:none;stroke:#000000"
       d="m 290.8056,196.94895 39.30413,0"
       id="path5469-9-9"
       inkscape:connector-curvature="0" />
    <path
       style="fill:none;stroke:#000000"
       d="m 496.92317,454.12655 -1.11375,-1.3103 -10.57956,-12.4461 -11.13598,13.1012 -11.1384,13.104 -0.25981,0 0,0.3083 0,156.90816 0.22495,0 10.35442,12.18167 1.11362,1.31026 6.86756,8.08111 3.71181,4.3677 11.13617,-13.104 10.91379,-12.83674 0.22238,0 0,-0.2673 0,-0.2477 0,-156.70146 0.26465,0 -10.58185,-12.4488 z"
       id="path5475-2-3"
       inkscape:connector-curvature="0" />
    <path
       style="fill:none;stroke:#000000"
       d="m 254.5148,223.67055 2.03642,2.3962 8.54188,10.0513 1.11586,1.3128 10.5808,12.445 -0.26203,0 0,156.9572 -0.44991,0 -10.68888,12.5747 -11.13618,13.1013 -10.5783,-12.445 -1.11573,-1.3128 -10.1285,-11.9182 -0.44719,0 0,-0.5293 0,-156.1227 0,-0.5646 0.47991,0 9.4089,-11.0693 0.0207,-0.024 0.0199,-0.023 1.46619,-1.7249 11.13617,-13.104 z"
       id="path5477-1-4"
       inkscape:connector-curvature="0" />
    <path
       style="fill:none;stroke:#000000"
       d="m 146.55944,453.47135 -11.1384,13.104 -0.2598,0 0,0.3083 0,156.90816 0.22495,0 10.35441,12.18167 1.11362,1.31026 6.86756,8.08111 3.7118,4.3677 11.13617,-13.104 10.91379,-12.83674 0.22238,0 0,-0.2673 0,-0.2477 0,-156.70146 0.26465,0 -10.58184,-12.4488 -1.11376,-1.3103 -10.57956,-12.4461 -11.13597,13.1012 z"
       id="path5501-8-9"
       inkscape:connector-curvature="0" />
    <path
       style="fill:none;stroke:#000000"
       d="m 179.47879,406.83305 -10.90904,12.8367 -11.13617,13.1014 -10.5783,-12.4451 -1.11586,-1.3127 -10.35361,-12.1803 -0.22457,0 0,-0.2673 0,-156.3816 0,-0.5677 0.48252,0 10.91568,-12.8419 11.13617,-13.104 10.5783,12.4475 1.11587,1.3128 10.58079,12.445 -0.26465,0 0,156.9572 -0.22713,0 z"
       id="path5503-3-4"
       inkscape:connector-curvature="0" />
    <path
       style="fill:none;stroke:#000000"
       d="m 879.18587,466.57535 0.26203,0 0,157.21646 0.225,0 10.91379,12.83674 11.13618,13.104 10.57935,-12.44881 1.11362,-1.31026 10.3555,-12.18167 0.22125,0 0,-0.2646 0,-156.64936 0,-0.3025 -0.25719,0 -11.1384,-13.104 -11.13617,-13.1014 -10.57936,12.4463 -1.11374,1.3103 -10.58186,12.4488 z"
       id="path5517-8-0"
       inkscape:connector-curvature="0" />
    <path
       style="fill:none;stroke:#000000"
       d="m 660.16621,452.81625 10.57956,-12.4461 11.13597,13.1012 11.1384,13.104 0.2598,0 0,0.3083 0,156.90816 -0.22495,0 -10.35441,12.18167 -1.11362,1.31026 -6.86756,8.08111 -3.7118,4.3677 -11.13617,-13.104 -10.91379,-12.83674 -0.22238,0 0,-0.2673 0,-0.2477 0,-156.70146 -0.26465,0 10.58185,-12.4488 1.11375,-1.3103 z"
       id="path5519-8-9"
       inkscape:connector-curvature="0" />
    <path
       style="fill:none;stroke:#000000"
       d="m 890.88253,236.11805 -1.11586,1.3128 -10.5808,12.445 0.26203,0 0,156.9572 0.44991,0 10.68888,12.5747 11.13618,13.1013 10.5783,-12.445 1.11573,-1.3128 10.1285,-11.9182 0.44719,0 0,-0.5293 0,-156.1227 0,-0.5646 -0.47991,0 -9.4089,-11.0693 -0.0207,-0.024 -0.0199,-0.023 -1.46619,-1.7249 -11.13617,-13.104 -2.03642,2.3963 -8.54188,10.0513 z"
       id="path5521-0-4"
       inkscape:connector-curvature="0" />
    <path
       style="fill:none;stroke:#000000"
       d="m 865.43467,413.64315 -0.52668,0 -156.68986,0 0,0.4821 -12.84197,10.9161 -13.10137,11.1361 12.4463,10.5794 1.31027,1.1136 12.18677,10.3567 0.26203,0.2216 0,-0.261 156.42783,0 0.52668,0 0,-0.4476 12.5747,-10.6885 13.104,-11.1362 -12.4488,-10.5794 -1.31026,-1.1137 -11.91964,-10.1365 0,-0.4427 z"
       id="path5523-4-6"
       inkscape:connector-curvature="0" />
    <path
       style="fill:none;stroke:#000000"
       d="m 693.27994,250.18415 0,-0.5677 -0.48252,0 -10.91568,-12.8419 -11.13617,-13.104 -10.5783,12.4475 -1.11586,1.3128 -10.5808,12.445 0.26465,0 0,156.9572 0.22713,0 10.90904,12.8367 11.13617,13.1014 10.5783,-12.4451 1.11587,-1.3127 10.3536,-12.1803 0.22457,0 0,-0.2673 0,-156.3816 z"
       id="path5525-5-2"
       inkscape:connector-curvature="0" />
    <path
       style="fill:none;stroke:#000000"
       d="m 695.77058,231.17485 12.44755,10.5808 0,-0.262 157.21654,0 0,-0.225 12.83673,-10.9138 13.10399,-11.1362 -12.44754,-10.5783 -1.31277,-1.1158 -12.18041,-10.3582 0,-0.2174 -0.26465,0 -156.95189,0 0,0.2594 -13.104,11.1362 -13.10138,11.1361 12.44507,10.5783 1.31276,1.1159 z"
       id="path5527-5-7"
       inkscape:connector-curvature="0" />
    <path
       style="fill:none;stroke:#000000"
       d="m 1398.7918,426.74445 -5.898,-5.0112 -1.3104,-1.1139 -5.762,-4.9 0,-0.111 -0.1336,0 -62.0403,0 -16.2833,0 -0.1537,0 0,0.1306 -6.5507,5.5685 -6.5506,5.5681 5.8956,5.0112 1.3104,1.1139 4.3816,3.7247 1.5163,1.2889 0,-0.1336 78.6083,0 0,-0.1136 6.4171,-5.4545 6.5533,-5.5681 z"
       id="path5529-8-6"
       inkscape:connector-curvature="0" />
    <path
       style="fill:none;stroke:#000000"
       d="m 604.19057,347.87415 a 26.202756,26.202756 0 1 1 -52.40551,0 26.202756,26.202756 0 1 1 52.40551,0 z"
       id="path5533-8-0"
       inkscape:connector-curvature="0" />
    <path
       style="fill:none;stroke:#000000"
       d="m 604.19057,524.48075 a 26.202756,26.202756 0 1 1 -52.40551,0 26.202756,26.202756 0 1 1 52.40551,0 z"
       id="path5535-0-5"
       inkscape:connector-curvature="0" />
    <path
       style="fill:none;stroke:#000000"
       d="m 1193.881,249.87585 0,156.9572 0.4499,0 10.6889,12.5747 11.1362,13.1013 10.5783,-12.445 1.1157,-1.3128 10.1285,-11.9182 0.4472,0 0,-0.5293 0,-156.1227 0,-0.5646 -0.4799,0 -9.4089,-11.0693 -0.021,-0.024 -0.02,-0.023 -1.4662,-1.7249 -11.1362,-13.104 -2.0364,2.3963 -8.5419,10.0513 -1.1158,1.3127 -10.5808,12.4451 0.262,0 z"
       id="path5587-6-2"
       inkscape:connector-curvature="0" />
    <path
       style="fill:none;stroke:#000000"
       d="m 996.01998,637.28374 -6.8675,8.08111 -3.7118,4.3677 -11.1362,-13.104 -10.9138,-12.83674 -0.2224,0 0,-0.2673 0,-0.2477 0,-156.70146 -0.2646,0 10.5818,-12.4488 1.1138,-1.3103 10.5796,-12.4461 11.1359,13.1012 11.13842,13.104 0.2598,0 0,0.3083 0,156.90816 -0.2249,0 -10.35442,12.18167 -1.1137,1.31026 z"
       id="path5589-2-3"
       inkscape:connector-curvature="0" />
    <path
       style="fill:none;stroke:#000000"
       d="m 1007.713,406.83305 0,-0.2673 0,-156.3816 0,-0.5677 -0.4825,0 -10.91572,-12.8419 -11.1361,-13.104 -10.5783,12.4475 -1.1159,1.3128 -10.5808,12.445 0.2646,0 0,156.9572 0.2272,0 10.909,12.8367 11.1362,13.1014 10.5783,-12.4451 1.1159,-1.3127 10.35362,-12.1803 0.2245,0 z"
       id="path5591-9-2"
       inkscape:connector-curvature="0" />
    <path
       style="fill:none;stroke:#000000"
       d="m 1022.6512,673.83907 -3.0261,-2.57231 -9.4227,-8.00954 -1.3103,-1.11375 -12.44602,-10.57956 13.10112,-11.13597 13.104,-11.13883 0,-0.2594 0.3052,0 32.5714,0 124.0811,0 0.2589,0 0,0.2224 12.1816,10.35686 1.3103,1.11376 12.4459,10.58178 -13.1011,11.13375 -12.8367,10.91121 0,0.22496 -157.2166,0 0,0.26464 z"
       id="path5593-7-6"
       inkscape:connector-curvature="0" />
    <path
       style="fill:none;stroke:#000000"
       d="m 1238.2044,623.79181 0.2213,0 0,-0.2646 0,-156.64936 0,-0.3025 -0.2572,0 -11.1384,-13.104 -11.1362,-13.1014 -10.5793,12.4463 -1.1138,1.3103 -10.5818,12.4488 0.262,0 0,157.21646 0.225,0 10.9138,12.83674 11.1362,13.104 10.5793,-12.44881 1.1136,-1.31026 10.3555,-12.18167 z"
       id="path5595-4-9"
       inkscape:connector-curvature="0" />
    <path
       style="fill:none;stroke:#000000"
       d="m 1179.8678,196.94895 -0.025,0 -157.1917,-0.9264 0,1.1858 -13.104,11.1362 -13.10132,11.1361 12.44502,10.5783 1.3128,1.1159 12.4475,10.5808 0,-0.262 157.2166,0 0,-0.225 12.8367,-10.9138 13.104,-11.1362 -12.4475,-10.5783 -1.3128,-1.1158 -12.1804,-10.3582 0,-0.2174 z"
       id="path5597-3-4"
       inkscape:connector-curvature="0" />
    <path
       style="fill:none;stroke:#000000"
       d="m 1179.3411,458.18775 0.5267,0 0,-0.4476 12.5747,-10.6885 13.104,-11.1362 -12.4488,-10.5794 -1.3103,-1.1137 -11.9196,-10.1365 0,-0.4427 -0.5267,0 -156.6899,0 0,0.4821 -12.842,10.9161 -13.10132,11.1361 12.44632,10.5794 1.3102,1.1136 12.1868,10.3567 0.262,0.2216 0,-0.261 156.4279,0 z"
       id="path5599-4-4"
       inkscape:connector-curvature="0" />
    <path
       style="fill:none;stroke:#000000"
       d="m 878.2714,662.43826 -12.83673,10.91121 0,0.22496 -157.21654,0 0,0.26464 -3.02615,-2.57231 -9.42264,-8.00954 -1.31028,-1.11375 -12.44607,-10.57956 13.10114,-11.13597 13.104,-11.13883 0,-0.2594 0.30518,0 32.57139,0 124.08111,0 0.25886,0 0,0.2224 12.18166,10.35686 1.31027,1.11376 12.44595,10.58178 -13.10115,11.13375 z"
       id="path5635-2-1"
       inkscape:connector-curvature="0" />
    <path
       style="fill:none;stroke:#000000"
       d="m 1277.4704,304.51125 0,-0.1336 0,-78.3463 -0.1336,0 5.0126,-5.8944 1.1159,-1.3128 5.0127,-5.8939 5.5656,6.5504 5.4568,6.4197 0.2423,0 0,0.2878 0,78.3231 -0.1136,0 -11.0225,12.9677 -5.5681,-6.5506 -5.4571,-6.4171 -0.111,0 z"
       id="path5637-7-7"
       inkscape:connector-curvature="0" />
    <path
       style="fill:none;stroke:#000000"
       d="m 1300.7909,313.61405 6.4196,-5.4567 0,-0.2424 78.3519,0 0.259,0 0,0.2225 5.631,4.7886 1.3104,1.1138 5.8951,5.0137 -6.5504,5.5657 -6.2861,5.3431 0,0.2276 -0.2703,0 -78.2096,0 0,0.131 -0.131,-0.1114 -5.7646,-4.9022 -1.3104,-1.1139 -5.8951,-5.0137 6.5505,-5.5657 z"
       id="path5639-7-7"
       inkscape:connector-curvature="0" />
    <path
       style="fill:none;stroke:#000000"
       d="m 1307.3647,199.56655 78.3287,0 0.128,0 0,0.1111 5.7608,4.899 1.3128,1.1158 5.8939,5.0127 -6.5504,5.5657 -6.4171,5.4571 0,0.1136 -78.6083,0 0,0.1288 -5.8941,-5.0104 -1.3128,-1.1159 -5.8942,-5.0105 6.5505,-5.5679 6.5506,-5.568 0,-0.1311 0.1542,0 z"
       id="path5641-1-9"
       inkscape:connector-curvature="0" />
    <path
       style="fill:none;stroke:#000000"
       d="m 1410.1446,220.35515 -0.019,-0.023 -0.7238,-0.8515 -5.5657,-6.5505 -1.0222,1.1974 -3.9905,4.6966 -1.1159,1.3128 -5.0126,5.8944 0.131,0 0,78.4799 0.2272,0 5.3435,6.286 5.5681,6.5507 5.0103,-5.8944 1.1156,-1.3128 4.7832,-5.6295 0.2271,0 0,-78.3258 0,-0.2851 -0.2424,0 -4.6924,-5.5204 -0.021,-0.025 z"
       id="path5643-4-2"
       inkscape:connector-curvature="0" />
    <path
       style="fill:none;stroke:#000000"
       d="m 1392.8254,334.38235 -0.131,0 5.0136,-5.8979 1.1139,-1.3104 5.0115,-5.8954 5.5679,6.5504 5.5681,6.5507 0.131,0 0,0.1568 0,78.4541 -0.1136,0 -4.8977,5.762 -1.1136,1.3104 -5.0124,5.8967 -5.567,-6.552 -5.4571,-6.4171 -0.1136,0 0,-78.6083 z"
       id="path5645-0-8"
       inkscape:connector-curvature="0" />
    <path
       style="fill:none;stroke:#000000"
       d="m 1299.6095,334.37975 -5.5659,-6.5507 -5.568,-6.5506 -5.0113,5.8956 -1.1139,1.3104 -5.0136,5.8979 0.131,0 0,78.348 0,0.2603 0.1136,0 5.4571,6.4171 5.5681,6.5533 1.8563,-2.1848 3.1549,-3.7132 1.1137,-1.3104 4.8987,-5.762 0.1125,0 0,-78.4567 0,-0.1542 -0.1332,0 z"
       id="path5647-1-5"
       inkscape:connector-curvature="0" />
    <path
       style="fill:none;stroke:#000000"
       d="m 104.39886,663.94641 a 11.7,11.7 0 1 1 -23.4,0 11.7,11.7 0 1 1 23.4,0 z"
       id="path5649-9-2"
       inkscape:connector-curvature="0" />
    <path
       style="fill:none;stroke:#000000"
       d="m 104.28016,210.39165 a 11.7,11.7 0 0 1 -23.4,0 11.7,11.7 0 1 1 23.4,0 z"
       id="path5651-6-7"
       inkscape:connector-curvature="0" />
    <path
       style="fill:none;stroke:#000000"
       d="m 1502.7195,662.60178 -248.0315,0"
       id="path5653-4-5"
       inkscape:connector-curvature="0" />
    <path
       style="fill:none;stroke:#000000"
       d="m 1254.688,662.60178 0,-212.59843"
       id="path5655-6-3"
       inkscape:connector-curvature="0" />
    <path
       style="fill:none;stroke:#000000"
       d="m 1254.688,450.00335 248.0315,0"
       id="path5657-1-8"
       inkscape:connector-curvature="0" />
    <path
       style="fill:none;stroke:#000000"
       d="m 102.26696,729.44598 -9.5056,0.009"
       id="path5661-1-3"
       inkscape:connector-curvature="0" />
    <path
       style="fill:none;stroke:#000000"
       d="m 1441.8291,691.0107 a 11.7,11.7 0 0 1 -23.4,0 11.7,11.7 0 1 1 23.4,0 z"
       id="path5715-3-2"
       inkscape:connector-curvature="0" />
    <path
       style="fill:none;stroke:#000000"
       d="m 1466.196,210.32635 a 11.7,11.7 0 0 1 -23.4,0 11.7,11.7 0 1 1 23.4,0 z"
       id="path5721-0-1"
       inkscape:connector-curvature="0" />
  </g>
</svg>
