<?xml version="1.0" encoding="UTF-8" standalone="no"?>
<svg
   xmlns:dc="http://purl.org/dc/elements/1.1/"
   xmlns:cc="http://creativecommons.org/ns#"
   xmlns:rdf="http://www.w3.org/1999/02/22-rdf-syntax-ns#"
   xmlns:svg="http://www.w3.org/2000/svg"
   xmlns="http://www.w3.org/2000/svg"
   xmlns:sodipodi="http://sodipodi.sourceforge.net/DTD/sodipodi-0.dtd"
   xmlns:inkscape="http://www.inkscape.org/namespaces/inkscape"
   width="18in"
   height="12in"
   id="svg5423"
   version="1.1"
   inkscape:version="0.48.5 r10040"
   sodipodi:docname="4_nut_digits.svg">
  <metadata
     id="metadata5735">
    <rdf:RDF>
      <cc:Work
         rdf:about="">
        <dc:format>image/svg+xml</dc:format>
        <dc:type
           rdf:resource="http://purl.org/dc/dcmitype/StillImage" />
        <dc:title></dc:title>
      </cc:Work>
    </rdf:RDF>
  </metadata>
  <sodipodi:namedview
     pagecolor="#ffffff"
     bordercolor="#666666"
     borderopacity="1"
     objecttolerance="10"
     gridtolerance="10"
     guidetolerance="10"
     inkscape:pageopacity="0"
     inkscape:pageshadow="2"
     inkscape:window-width="1280"
     inkscape:window-height="751"
     id="namedview5733"
     showgrid="false"
     inkscape:zoom="0.51028061"
     inkscape:cx="844.99785"
     inkscape:cy="578.13068"
     inkscape:window-x="0"
     inkscape:window-y="0"
     inkscape:window-maximized="1"
     inkscape:current-layer="g5441"
     units="in" />
  <desc
     id="desc5425">H:\Makerspace\Jenna\Clock\clock_final1.dxf - scale = 1.000000, origin = (0.000000, 0.000000), auto = False</desc>
  <defs
     id="defs5427">
    <marker
       refY="0"
       refX="0"
       style="overflow:visible"
       id="DistanceX"
       orient="auto">
      <path
         style="stroke:#000000;stroke-width:0.5"
         d="M 3,-3 -3,3 M 0,-5 0,5"
         id="path5430"
         inkscape:connector-curvature="0" />
    </marker>
    <pattern
       height="8"
       width="8"
       patternUnits="userSpaceOnUse"
       y="0"
       x="0"
       id="Hatch">
      <path
         linecap="square"
         stroke="#000000"
         stroke-width="0.25"
         d="M8 4 l-4,4"
         id="path5433" />
      <path
         linecap="square"
         stroke="#000000"
         stroke-width="0.25"
         d="M6 2 l-4,4"
         id="path5435" />
      <path
         linecap="square"
         stroke="#000000"
         stroke-width="0.25"
         d="M4 0 l-4,4"
         id="path5437" />
    </pattern>
    <symbol
       id="*MODEL_SPACE" />
    <symbol
       id="*PAPER_SPACE" />
    <symbol
       id="*PAPER_SPACE-6" />
    <symbol
       id="*MODEL_SPACE-1" />
    <pattern
       id="Hatch-9"
       x="0"
       y="0"
       patternUnits="userSpaceOnUse"
       width="8"
       height="8">
      <path
         id="path4146"
         d="M8 4 l-4,4"
         stroke-width="0.25"
         stroke="#000000"
         linecap="square" />
      <path
         id="path4148"
         d="M6 2 l-4,4"
         stroke-width="0.25"
         stroke="#000000"
         linecap="square" />
      <path
         id="path4150"
         d="M4 0 l-4,4"
         stroke-width="0.25"
         stroke="#000000"
         linecap="square" />
    </pattern>
    <marker
       orient="auto"
       id="DistanceX-0"
       style="overflow:visible"
       refX="0"
       refY="0">
      <path
         inkscape:connector-curvature="0"
         id="path4143"
         d="M 3,-3 -3,3 M 0,-5 0,5"
         style="stroke:#000000;stroke-width:0.5" />
    </marker>
  </defs>
  <g
     inkscape:label="0"
     inkscape:groupmode="layer"
     id="g5441"
     transform="translate(0,27.637833)">
    <g
       id="g4154"
       inkscape:label="0"
       transform="translate(16.057774,-111.69089)">
      <path
         inkscape:connector-curvature="0"
         id="path4156"
         d="M 146.01242,798.91113 1490.5244,797.62897"
         style="fill:none;stroke:#000000" />
      <path
         inkscape:connector-curvature="0"
         id="path4158"
         d="M 146.01242,798.91113 A 65.508661,65.508661 0 0 1 80.441292,733.41965"
         style="fill:none;stroke:#000000" />
      <path
         inkscape:connector-curvature="0"
         id="path4160"
         d="m 80.322542,279.86483 0.11875,453.55482"
         style="fill:none;stroke:#000000" />
      <path
         inkscape:connector-curvature="0"
         id="path4162"
         d="m 145.82802,214.33902 1344.19938,-0.0653"
         style="fill:none;stroke:#000000" />
      <path
         inkscape:connector-curvature="0"
         id="path4164"
         d="M 80.322542,279.86483 A 65.508661,65.508661 0 0 1 145.82802,214.33902"
         style="fill:none;stroke:#000000" />
      <path
         inkscape:connector-curvature="0"
         id="path4166"
         d="m 1490.0274,214.27375 a 65.508661,65.508661 0 0 1 65.5118,65.44619"
         style="fill:none;stroke:#000000" />
      <path
         inkscape:connector-curvature="0"
         id="path4168"
         d="m 1555.5392,279.71994 0.4313,452.33792"
         style="fill:none;stroke:#000000" />
      <path
         inkscape:connector-curvature="0"
         id="path4170"
         d="m 1555.9705,732.05786 a 65.508661,65.508661 0 0 1 -65.4461,65.57111"
         style="fill:none;stroke:#000000" />
      <path
         inkscape:connector-curvature="0"
         id="path4374"
         d="m 155.51801,798.90207 -9.50559,0.009"
         style="fill:none;stroke:#000000" />
      <path
         inkscape:connector-curvature="0"
         id="path4448"
         d="m 168.44994,733.4025 a 22.5,22.5 0 0 1 -45,0 22.5,22.5 0 1 1 45,0 z"
         style="fill:none;stroke:#000000" />
      <path
         inkscape:connector-curvature="0"
         id="path4450"
         d="m 1506.1078,760.23915 a 22.5,22.5 0 0 1 -45,0 22.5,22.5 0 1 1 45,0 z"
         style="fill:none;stroke:#000000" />
      <path
         inkscape:connector-curvature="0"
         id="path4452"
         d="m 1530.2471,279.78241 a 22.5,22.5 0 0 1 -45,0 22.5,22.5 0 1 1 45,0 z"
         style="fill:none;stroke:#000000" />
      <path
         inkscape:connector-curvature="0"
         id="path4454"
         d="m 168.3312,279.84768 a 22.5,22.5 0 0 1 -45,0 22.5,22.5 0 1 1 45,0 z"
         style="fill:none;stroke:#000000" />
    </g>
    <path
       style="fill:none;stroke:#000000"
       d="m 301.26911,581.75859 0,-156.6493 0,-0.3025 0.25719,0 11.1384,-13.104 11.13617,-13.1014 10.57936,12.4463 1.11374,1.3103 10.58186,12.4488 -0.26203,0 0,157.2164 -0.225,0 -10.91379,12.8368 -11.13618,13.104 -10.57935,-12.4488 -1.11362,-1.3103 -10.3555,-12.1817 -0.22125,0 0,-0.2646 z"
       id="path5459-9-2"
       inkscape:connector-curvature="0" />
    <path
       style="fill:none;stroke:#000000"
       d="m 517.04356,416.45859 -0.26203,0.2216 0,-0.261 -156.42783,0 -0.52668,0 0,-0.4476 -12.57469,-10.6885 -13.104,-11.1362 12.4488,-10.5794 1.31026,-1.1137 11.91963,-10.1365 0,-0.4427 0.52668,0 156.68986,0 0,0.4821 12.84197,10.9161 13.10137,11.1361 -12.44631,10.5794 -1.31026,1.1136 -12.18677,10.3567 z"
       id="path5461-7-1"
       inkscape:connector-curvature="0" />
    <path
       style="fill:none;stroke:#000000"
       d="m 360.09167,155.18036 156.95189,0 0,0.2594 13.104,11.1362 13.10138,11.1361 -12.44507,10.5783 -1.31276,1.1159 -12.44755,10.5808 0,-0.262 -157.21654,0 0,-0.225 -12.83672,-10.9138 -13.10399,-11.1362 12.44754,-10.5783 1.31277,-1.1158 12.1804,-10.3582 0,-0.2174 0.26465,0 z"
       id="path5463-6-9"
       inkscape:connector-curvature="0" />
    <path
       style="fill:none;stroke:#000000"
       d="m 359.82702,631.80589 157.21654,0 0,0.2646 3.02615,-2.5723 9.42264,-8.0096 1.31028,-1.1137 12.44607,-10.5796 -13.10114,-11.1359 -13.104,-11.1389 0,-0.2594 -0.30518,0 -32.5714,0 -124.0811,0 -0.25886,0 0,0.2224 -12.18165,10.3569 -1.31027,1.1138 -12.44595,10.5817 13.10115,11.1338 12.83672,10.9112 0,0.225 z"
       id="path5465-1-5"
       inkscape:connector-curvature="0" />
    <path
       style="fill:none;stroke:#000000"
       d="m 554.2541,391.00259 -10.57831,-12.4451 -1.11587,-1.3127 -10.35361,-12.1803 -0.22457,0 0,-0.2673 0,-156.38163 0,-0.5677 0.48253,0 10.91568,-12.8419 11.13618,-13.104 10.5783,12.4475 1.11586,1.3128 10.5808,12.445 -0.26465,0 0,156.95723 -0.22713,0 -10.90904,12.8367 -11.13617,13.1014 z"
       id="path5467-7-0"
       inkscape:connector-curvature="0" />
    <path
       style="fill:none;stroke:#000000"
       d="m 360.09167,155.18036 39.30413,0"
       id="path5469-9-0"
       inkscape:connector-curvature="0" />
    <path
       style="fill:none;stroke:#000000"
       d="m 566.20924,412.35799 -1.11375,-1.3103 -10.57956,-12.4461 -11.13598,13.1012 -11.1384,13.104 -0.25981,0 0,0.3083 0,156.9081 0.22495,0 10.35442,12.1817 1.11362,1.3103 6.86756,8.0811 3.71181,4.3677 11.13617,-13.104 10.91379,-12.8368 0.22238,0 0,-0.2673 0,-0.2477 0,-156.7014 0.26465,0 -10.58185,-12.4488 z"
       id="path5475-2-5"
       inkscape:connector-curvature="0" />
    <path
       style="fill:none;stroke:#000000"
       d="m 323.80087,181.90196 2.03642,2.3962 8.54188,10.0513 1.11586,1.3128 10.5808,12.445 -0.26203,0 0,156.95723 -0.44991,0 -10.68888,12.5747 -11.13618,13.1013 -10.5783,-12.445 -1.11573,-1.3128 -10.1285,-11.9182 -0.44719,0 0,-0.5293 0,-156.12273 0,-0.5646 0.47991,0 9.4089,-11.0693 0.0207,-0.024 0.0199,-0.023 1.46619,-1.7249 11.13617,-13.104 z"
       id="path5477-1-0"
       inkscape:connector-curvature="0" />
    <path
       style="fill:none;stroke:#000000"
       d="m 215.84551,411.70279 -11.1384,13.104 -0.2598,0 0,0.3083 0,156.9081 0.22495,0 10.35441,12.1817 1.11362,1.3103 6.86756,8.0811 3.7118,4.3677 11.13617,-13.104 10.91379,-12.8368 0.22238,0 0,-0.2673 0,-0.2477 0,-156.7014 0.26465,0 -10.58184,-12.4488 -1.11376,-1.3103 -10.57956,-12.4461 -11.13597,13.1012 z"
       id="path5501-8-9"
       inkscape:connector-curvature="0" />
    <path
       style="fill:none;stroke:#000000"
       d="m 248.76486,365.06449 -10.90904,12.8367 -11.13617,13.1014 -10.5783,-12.4451 -1.11586,-1.3127 -10.35361,-12.1803 -0.22457,0 0,-0.2673 0,-156.38163 0,-0.5677 0.48252,0 10.91568,-12.8419 11.13617,-13.104 10.5783,12.4475 1.11587,1.3128 10.58079,12.445 -0.26465,0 0,156.95723 -0.22713,0 z"
       id="path5503-3-5"
       inkscape:connector-curvature="0" />
    <path
       style="fill:none;stroke:#000000"
       d="m 948.47194,424.80679 0.26203,0 0,157.2164 0.225,0 10.91379,12.8368 11.13618,13.104 10.57935,-12.4488 1.11362,-1.3103 10.3555,-12.1817 0.22125,0 0,-0.2646 0,-156.6493 0,-0.3025 -0.25719,0 -11.1384,-13.104 -11.13617,-13.1014 -10.57936,12.4463 -1.11374,1.3103 -10.58186,12.4488 z"
       id="path5517-8-8"
       inkscape:connector-curvature="0" />
    <path
       style="fill:none;stroke:#000000"
       d="m 729.45228,411.04769 10.57956,-12.4461 11.13597,13.1012 11.1384,13.104 0.2598,0 0,0.3083 0,156.9081 -0.22495,0 -10.35441,12.1817 -1.11362,1.3103 -6.86756,8.0811 -3.7118,4.3677 -11.13617,-13.104 -10.91379,-12.8368 -0.22238,0 0,-0.2673 0,-0.2477 0,-156.7014 -0.26465,0 10.58185,-12.4488 1.11375,-1.3103 z"
       id="path5519-8-5"
       inkscape:connector-curvature="0" />
    <path
       style="fill:none;stroke:#000000"
       d="m 960.1686,194.34946 -1.11586,1.3128 -10.5808,12.445 0.26203,0 0,156.95723 0.44991,0 10.68888,12.5747 11.13618,13.1013 10.5783,-12.445 1.11573,-1.3128 10.1285,-11.9182 0.44719,0 0,-0.5293 0,-156.12273 0,-0.5646 -0.47991,0 -9.4089,-11.0693 -0.0207,-0.024 -0.0199,-0.023 -1.46619,-1.7249 -11.13617,-13.104 -2.03642,2.3963 -8.54188,10.0513 z"
       id="path5521-0-9"
       inkscape:connector-curvature="0" />
    <path
       style="fill:none;stroke:#000000"
       d="m 934.72074,371.87459 -0.52668,0 -156.68986,0 0,0.4821 -12.84197,10.9161 -13.10137,11.1361 12.4463,10.5794 1.31027,1.1136 12.18677,10.3567 0.26203,0.2216 0,-0.261 156.42783,0 0.52668,0 0,-0.4476 12.5747,-10.6885 13.104,-11.1362 -12.4488,-10.5794 -1.31026,-1.1137 -11.91964,-10.1365 0,-0.4427 z"
       id="path5523-4-9"
       inkscape:connector-curvature="0" />
    <path
       style="fill:none;stroke:#000000"
       d="m 762.56601,208.41556 0,-0.5677 -0.48252,0 -10.91568,-12.8419 -11.13617,-13.104 -10.5783,12.4475 -1.11586,1.3128 -10.5808,12.445 0.26465,0 0,156.95723 0.22713,0 10.90904,12.8367 11.13617,13.1014 10.5783,-12.4451 1.11587,-1.3127 10.3536,-12.1803 0.22457,0 0,-0.2673 0,-156.38163 z"
       id="path5525-5-1"
       inkscape:connector-curvature="0" />
    <path
       style="fill:none;stroke:#000000"
       d="m 765.05665,189.40626 12.44755,10.5808 0,-0.262 157.21654,0 0,-0.225 12.83673,-10.9138 13.10399,-11.1362 -12.44754,-10.5783 -1.31277,-1.1158 -12.18041,-10.3582 0,-0.2174 -0.26465,0 -156.95189,0 0,0.2594 -13.104,11.1362 -13.10138,11.1361 12.44507,10.5783 1.31276,1.1159 z"
       id="path5527-5-5"
       inkscape:connector-curvature="0" />
    <path
       style="fill:none;stroke:#000000"
       d="m 1468.0778,384.97589 -5.898,-5.0112 -1.3104,-1.1139 -5.762,-4.9 0,-0.111 -0.1336,0 -62.0403,0 -16.2833,0 -0.1537,0 0,0.1306 -6.5507,5.5685 -6.5506,5.5681 5.8956,5.0112 1.3104,1.1139 4.3816,3.7247 1.5163,1.2889 0,-0.1336 78.6083,0 0,-0.1136 6.4171,-5.4545 6.5533,-5.5681 z"
       id="path5529-8-9"
       inkscape:connector-curvature="0" />
    <path
       style="fill:none;stroke:#000000"
       d="m 673.47664,306.10559 a 26.202756,26.202756 0 1 1 -52.40551,0 26.202756,26.202756 0 1 1 52.40551,0 z"
       id="path5533-8-9"
       inkscape:connector-curvature="0" />
    <path
       style="fill:none;stroke:#000000"
       d="m 673.47664,482.71219 a 26.202756,26.202756 0 1 1 -52.40551,0 26.202756,26.202756 0 1 1 52.40551,0 z"
       id="path5535-0-5"
       inkscape:connector-curvature="0" />
    <path
       style="fill:none;stroke:#000000"
       d="m 1263.167,208.10726 0,156.95723 0.4499,0 10.6889,12.5747 11.1362,13.1013 10.5783,-12.445 1.1157,-1.3128 10.1285,-11.9182 0.4472,0 0,-0.5293 0,-156.12273 0,-0.5646 -0.4799,0 -9.4089,-11.0693 -0.021,-0.024 -0.02,-0.023 -1.4662,-1.7249 -11.1362,-13.104 -2.0364,2.3963 -8.5419,10.0513 -1.1158,1.3127 -10.5808,12.4451 0.262,0 z"
       id="path5587-6-5"
       inkscape:connector-curvature="0" />
    <path
       style="fill:none;stroke:#000000"
       d="m 1065.3061,595.51519 -6.8675,8.0811 -3.7118,4.3677 -11.1363,-13.104 -10.9138,-12.8368 -0.2224,0 0,-0.2673 0,-0.2477 0,-156.7014 -0.2646,0 10.5818,-12.4488 1.1138,-1.3103 10.5797,-12.4461 11.1359,13.1012 11.1384,13.104 0.2598,0 0,0.3083 0,156.9081 -0.2249,0 -10.3544,12.1817 -1.1137,1.3103 z"
       id="path5589-2-0"
       inkscape:connector-curvature="0" />
    <path
       style="fill:none;stroke:#000000"
       d="m 1076.9991,365.06449 0,-0.2673 0,-156.38163 0,-0.5677 -0.4825,0 -10.9157,-12.8419 -11.1361,-13.104 -10.5784,12.4475 -1.1159,1.3128 -10.5808,12.445 0.2646,0 0,156.95723 0.2272,0 10.909,12.8367 11.1363,13.1014 10.5783,-12.4451 1.1159,-1.3127 10.3536,-12.1803 0.2245,0 z"
       id="path5591-9-3"
       inkscape:connector-curvature="0" />
    <path
       style="fill:none;stroke:#000000"
       d="m 1091.9373,632.07049 -3.0261,-2.5723 -9.4227,-8.0096 -1.3103,-1.1137 -12.446,-10.5796 13.1011,-11.1359 13.104,-11.1389 0,-0.2594 0.3052,0 32.5713,0 124.0811,0 0.2589,0 0,0.2224 12.1816,10.3569 1.3103,1.1138 12.4459,10.5817 -13.1011,11.1338 -12.8367,10.9112 0,0.225 -157.2165,0 0,0.2646 z"
       id="path5593-7-6"
       inkscape:connector-curvature="0" />
    <path
       style="fill:none;stroke:#000000"
       d="m 1307.4904,582.02319 0.2213,0 0,-0.2646 0,-156.6493 0,-0.3025 -0.2572,0 -11.1384,-13.104 -11.1362,-13.1014 -10.5793,12.4463 -1.1138,1.3103 -10.5818,12.4488 0.262,0 0,157.2164 0.225,0 10.9138,12.8368 11.1362,13.104 10.5793,-12.4488 1.1136,-1.3103 10.3555,-12.1817 z"
       id="path5595-4-3"
       inkscape:connector-curvature="0" />
    <path
       style="fill:none;stroke:#000000"
       d="m 1249.1538,155.18036 -0.025,0 -157.1916,-0.9264 0,1.1858 -13.104,11.1362 -13.1013,11.1361 12.445,10.5783 1.3128,1.1159 12.4475,10.5808 0,-0.262 157.2165,0 0,-0.225 12.8367,-10.9138 13.104,-11.1362 -12.4475,-10.5783 -1.3128,-1.1158 -12.1804,-10.3582 0,-0.2174 z"
       id="path5597-3-1"
       inkscape:connector-curvature="0" />
    <path
       style="fill:none;stroke:#000000"
       d="m 1248.6271,416.41919 0.5267,0 0,-0.4476 12.5747,-10.6885 13.104,-11.1362 -12.4488,-10.5794 -1.3103,-1.1137 -11.9196,-10.1365 0,-0.4427 -0.5267,0 -156.6898,0 0,0.4821 -12.842,10.9161 -13.1013,11.1361 12.4463,10.5794 1.3102,1.1136 12.1868,10.3567 0.262,0.2216 0,-0.261 156.4278,0 z"
       id="path5599-4-6"
       inkscape:connector-curvature="0" />
    <path
       style="fill:none;stroke:#000000"
       d="m 947.55747,620.66969 -12.83673,10.9112 0,0.225 -157.21654,0 0,0.2646 -3.02615,-2.5723 -9.42264,-8.0096 -1.31028,-1.1137 -12.44607,-10.5796 13.10114,-11.1359 13.104,-11.1389 0,-0.2594 0.30518,0 32.57139,0 124.08111,0 0.25886,0 0,0.2224 12.18166,10.3569 1.31027,1.1138 12.44595,10.5817 -13.10115,11.1338 z"
       id="path5635-2-0"
       inkscape:connector-curvature="0" />
    <path
       style="fill:none;stroke:#000000"
       d="m 1346.7564,262.74269 0,-0.1336 0,-78.34633 -0.1336,0 5.0126,-5.8944 1.1159,-1.3128 5.0127,-5.8939 5.5656,6.5504 5.4568,6.4197 0.2423,0 0,0.2878 0,78.32313 -0.1136,0 -11.0225,12.9677 -5.5681,-6.5506 -5.4571,-6.4171 -0.111,0 z"
       id="path5637-7-4"
       inkscape:connector-curvature="0" />
    <path
       style="fill:none;stroke:#000000"
       d="m 1370.0769,271.84549 6.4196,-5.4567 0,-0.2424 78.3519,0 0.259,0 0,0.2225 5.631,4.7886 1.3104,1.1138 5.8951,5.0137 -6.5504,5.5657 -6.2861,5.3431 0,0.2276 -0.2703,0 -78.2096,0 0,0.131 -0.131,-0.1114 -5.7646,-4.9022 -1.3104,-1.1139 -5.8951,-5.0137 6.5505,-5.5657 z"
       id="path5639-7-1"
       inkscape:connector-curvature="0" />
    <path
       style="fill:none;stroke:#000000"
       d="m 1376.6507,157.79796 78.3287,0 0.128,0 0,0.1111 5.7608,4.899 1.3128,1.1158 5.8939,5.0127 -6.5504,5.5657 -6.4171,5.4571 0,0.1136 -78.6083,0 0,0.1288 -5.8941,-5.0104 -1.3128,-1.1159 -5.8942,-5.0105 6.5505,-5.5679 6.5506,-5.568 0,-0.1311 0.1542,0 z"
       id="path5641-1-7"
       inkscape:connector-curvature="0" />
    <path
       style="fill:none;stroke:#000000"
       d="m 1479.4306,178.58656 -0.019,-0.023 -0.7238,-0.8515 -5.5657,-6.5505 -1.0222,1.1974 -3.9905,4.6966 -1.1159,1.3128 -5.0126,5.8944 0.131,0 0,78.47993 0.2272,0 5.3435,6.286 5.5681,6.5507 5.0103,-5.8944 1.1156,-1.3128 4.7832,-5.6295 0.2271,0 0,-78.32583 0,-0.2851 -0.2424,0 -4.6924,-5.5204 -0.021,-0.025 z"
       id="path5643-4-1"
       inkscape:connector-curvature="0" />
    <path
       style="fill:none;stroke:#000000"
       d="m 1462.1114,292.61379 -0.131,0 5.0136,-5.8979 1.1139,-1.3104 5.0115,-5.8954 5.5679,6.5504 5.5681,6.5507 0.131,0 0,0.1568 0,78.4541 -0.1136,0 -4.8977,5.762 -1.1136,1.3104 -5.0124,5.8967 -5.567,-6.552 -5.4571,-6.4171 -0.1136,0 0,-78.6083 z"
       id="path5645-0-4"
       inkscape:connector-curvature="0" />
    <path
       style="fill:none;stroke:#000000"
       d="m 1368.8955,292.61119 -5.5659,-6.5507 -5.568,-6.5506 -5.0113,5.8956 -1.1139,1.3104 -5.0136,5.8979 0.131,0 0,78.348 0,0.2603 0.1136,0 5.4571,6.4171 5.5681,6.5533 1.8563,-2.1848 3.1549,-3.7132 1.1137,-1.3104 4.8987,-5.762 0.1125,0 0,-78.4567 0,-0.1542 -0.1332,0 z"
       id="path5647-1-6"
       inkscape:connector-curvature="0" />
    <path
       style="fill:none;stroke:#000000"
       d="m 1572.0055,620.83319 -248.0315,0"
       id="path5653-4-3"
       inkscape:connector-curvature="0" />
    <path
       style="fill:none;stroke:#000000"
       d="m 1323.974,620.83319 0,-212.5984"
       id="path5655-6-4"
       inkscape:connector-curvature="0" />
    <path
       style="fill:none;stroke:#000000"
       d="m 1323.974,408.23479 248.0315,0"
       id="path5657-1-7"
       inkscape:connector-curvature="0" />
  </g>
</svg>
