<?xml version="1.0" encoding="UTF-8" standalone="no"?>
<svg
   xmlns:dc="http://purl.org/dc/elements/1.1/"
   xmlns:cc="http://creativecommons.org/ns#"
   xmlns:rdf="http://www.w3.org/1999/02/22-rdf-syntax-ns#"
   xmlns:svg="http://www.w3.org/2000/svg"
   xmlns="http://www.w3.org/2000/svg"
   xmlns:sodipodi="http://sodipodi.sourceforge.net/DTD/sodipodi-0.dtd"
   xmlns:inkscape="http://www.inkscape.org/namespaces/inkscape"
   width="18in"
   height="12in"
   id="svg4136"
   version="1.1"
   inkscape:version="0.48.5 r10040"
   sodipodi:docname="TOP_acrylic.svg">
  <metadata
     id="metadata4458">
    <rdf:RDF>
      <cc:Work
         rdf:about="">
        <dc:format>image/svg+xml</dc:format>
        <dc:type
           rdf:resource="http://purl.org/dc/dcmitype/StillImage" />
        <dc:title />
      </cc:Work>
    </rdf:RDF>
  </metadata>
  <sodipodi:namedview
     pagecolor="#ffffff"
     bordercolor="#666666"
     borderopacity="1"
     objecttolerance="10"
     gridtolerance="10"
     guidetolerance="10"
     inkscape:pageopacity="0"
     inkscape:pageshadow="2"
     inkscape:window-width="1280"
     inkscape:window-height="751"
     id="namedview4456"
     showgrid="false"
     inkscape:zoom="0.51028059"
     inkscape:cx="795.66037"
     inkscape:cy="403.32132"
     inkscape:window-x="0"
     inkscape:window-y="0"
     inkscape:window-maximized="1"
     inkscape:current-layer="g4154"
     units="in" />
  <desc
     id="desc4138">H:\Makerspace\Jenna\Clock\FINAL_CLOCK\acry.dxf - scale = 1.000000, origin = (0.000000, 0.000000), auto = False</desc>
  <defs
     id="defs4140">
    <marker
       refY="0"
       refX="0"
       style="overflow:visible"
       id="DistanceX"
       orient="auto">
      <path
         style="stroke:#000000;stroke-width:0.5"
         d="M 3,-3 -3,3 M 0,-5 0,5"
         id="path4143"
         inkscape:connector-curvature="0" />
    </marker>
    <pattern
       height="8"
       width="8"
       patternUnits="userSpaceOnUse"
       y="0"
       x="0"
       id="Hatch">
      <path
         linecap="square"
         stroke="#000000"
         stroke-width="0.25"
         d="M8 4 l-4,4"
         id="path4146" />
      <path
         linecap="square"
         stroke="#000000"
         stroke-width="0.25"
         d="M6 2 l-4,4"
         id="path4148" />
      <path
         linecap="square"
         stroke="#000000"
         stroke-width="0.25"
         d="M4 0 l-4,4"
         id="path4150" />
    </pattern>
    <symbol
       id="*MODEL_SPACE" />
    <symbol
       id="*PAPER_SPACE" />
  </defs>
  <g
     inkscape:label="0"
     inkscape:groupmode="layer"
     id="g4154"
     transform="translate(0,27.637833)">
    <path
       style="fill:none;stroke:#000000"
       d="m 146.01242,214.27375 1344.51198,1.28216"
       id="path4156"
       inkscape:connector-curvature="0" />
    <path
       style="fill:none;stroke:#000000"
       d="M 146.01242,214.27375 A 65.508661,65.508661 0 0 0 80.441292,279.76523"
       id="path4158"
       inkscape:connector-curvature="0" />
    <path
       style="fill:none;stroke:#000000"
       d="m 80.322542,733.32005 0.11875,-453.55482"
       id="path4160"
       inkscape:connector-curvature="0" />
    <path
       style="fill:none;stroke:#000000"
       d="m 145.82802,798.84586 1344.19938,0.0653"
       id="path4162"
       inkscape:connector-curvature="0" />
    <path
       style="fill:none;stroke:#000000"
       d="m 80.322542,733.32005 a 65.508661,65.508661 0 0 0 65.505478,65.52581"
       id="path4164"
       inkscape:connector-curvature="0" />
    <path
       style="fill:none;stroke:#000000"
       d="m 1490.0274,798.91113 a 65.508661,65.508661 0 0 0 65.5118,-65.44619"
       id="path4166"
       inkscape:connector-curvature="0" />
    <path
       style="fill:none;stroke:#000000"
       d="m 1555.5392,733.46494 0.4313,-452.33792"
       id="path4168"
       inkscape:connector-curvature="0" />
    <path
       style="fill:none;stroke:#000000"
       d="m 1555.9705,281.12702 a 65.508661,65.508661 0 0 0 -65.4461,-65.57111"
       id="path4170"
       inkscape:connector-curvature="0" />
    <path
       style="fill:none;stroke:#000000"
       d="m 155.51801,214.28281 -9.50559,-0.009"
       id="path4374"
       inkscape:connector-curvature="0" />
    <path
       style="fill:#ff0000;fill-opacity:1;stroke:#ff0000;stroke-opacity:1"
       d="m 168.44994,279.78238 a 22.5,22.5 0 1 0 -45,0 22.5,22.5 0 0 0 45,0 z"
       id="path4448"
       inkscape:connector-curvature="0" />
    <path
       style="fill:#ff0000;fill-opacity:1;stroke:#ff0000;stroke-opacity:1"
       d="m 1506.1078,252.94573 a 22.5,22.5 0 1 0 -45,0 22.5,22.5 0 0 0 45,0 z"
       id="path4450"
       inkscape:connector-curvature="0" />
    <path
       style="fill:#ff0000;fill-opacity:1;stroke:#ff0000;stroke-opacity:1"
       d="m 1530.2471,733.40247 a 22.5,22.5 0 1 0 -45,0 22.5,22.5 0 0 0 45,0 z"
       id="path4452"
       inkscape:connector-curvature="0" />
    <path
       style="fill:#ff0000;fill-opacity:1;stroke:#ff0000;stroke-opacity:1"
       d="m 168.3312,733.3372 a 22.5,22.5 0 1 0 -45,0 22.5,22.5 0 0 0 45,0 z"
       id="path4454"
       inkscape:connector-curvature="0" />
  </g>
</svg>
